<?xml version="1.0" standalone="no"?><!DOCTYPE svg PUBLIC "-//W3C//DTD SVG 1.1//EN" "http://www.w3.org/Graphics/SVG/1.1/DTD/svg11.dtd"><svg t="1730538364686" class="icon" viewBox="0 0 1024 1024" version="1.1" xmlns="http://www.w3.org/2000/svg" p-id="40258" width="32" height="32" xmlns:xlink="http://www.w3.org/1999/xlink"><path d="M792.992427 1024H231.007573C103.40352 1024 0 920.59648 0 792.992427V231.007573C0 103.40352 103.40352 0 231.007573 0h561.984854C920.59648 0 1024 103.40352 1024 231.007573v561.984854C1024 920.59648 920.59648 1024 792.992427 1024z" fill="#FAA814" fill-opacity=".12" p-id="40259"></path><path d="M692.34688 350.303573c0-100.078933-81.708373-180.923733-182.510933-179.61984-91.5456 1.297067-170.222933 75.34592-176.581974 166.6048-6.219093 89.37472 52.350293 165.59104 133.338454 186.559147h0.146773v253.2352c0 5.782187 2.167467 11.277653 6.075733 15.619413l51.483307 56.40192a12.721493 12.721493 0 0 0 18.944 0l74.192213-80.98816c5.205333-5.64224 4.9152-14.318933-0.433493-19.67104l-37.891413-37.888c-5.92896-5.932373-5.92896-15.766187 0-21.695146l40.782506-40.782507c7.953067-7.953067 7.953067-20.681387 0-28.491093l-49.025706-49.025707a25.064107 25.064107 0 0 1-7.3728-17.790293v-29.791574c74.478933-21.838507 128.853333-90.821973 128.853333-172.680533z m-179.7632-80.264533c25.453227 0 46.134613 20.534613 46.134613 45.841067 0 25.45664-20.681387 45.847893-46.134613 45.847893-25.163093 0-45.84448-20.538027-45.84448-45.84448 0-25.453227 20.681387-45.84448 45.84448-45.84448z" fill="#FAA814" p-id="40260"></path></svg>