<?xml version="1.0" standalone="no"?><!DOCTYPE svg PUBLIC "-//W3C//DTD SVG 1.1//EN" "http://www.w3.org/Graphics/SVG/1.1/DTD/svg11.dtd"><svg t="1730525084407" class="icon" viewBox="0 0 1024 1024" version="1.1" xmlns="http://www.w3.org/2000/svg" p-id="8451" width="32" height="32" xmlns:xlink="http://www.w3.org/1999/xlink"><path d="M0 0h1024v1024H0z" fill="#076FFF" p-id="8452"></path><path d="M414.08 695.744h1.92L499.264 832H342.208a50.496 50.496 0 0 1-39.168-21.248L133.504 533.888a43.648 43.648 0 0 1 0-42.496l169.6-276.8a51.2 51.2 0 0 1 39.104-21.312h154.816L414.08 328.32c-14.72 0-26.24 11.264-26.24 24.704a24.96 24.96 0 0 0 3.712 12.608L315.968 487.936c-14.272 0-26.24 10.88-26.24 24.704 0 13.44 11.52 24.768 26.24 24.768h2.304l74.176 120.576a23.68 23.68 0 0 0 6.912 34.304 31.872 31.872 0 0 0 14.72 3.456z m191.68-47.744s-0.448 0 0 0l-73.728-119.68a24.256 24.256 0 0 0 5.12-9.6h145.984c0 1.28 0.448 2.56 1.408 3.456l-13.376 21.76-63.552 104.512c-0.448-0.448-1.408 0-1.92-0.448z m284.736-157.056a43.648 43.648 0 0 1 0 42.56l-169.6 276.8a51.2 51.2 0 0 1-39.104 21.248H529.28l-87.552-143.168H590.08a26.24 26.24 0 0 0 19.328 8.256c14.336 0 25.856-10.88 25.856-24.768a24.448 24.448 0 0 0-2.304-9.984l76.48-125.376a25.344 25.344 0 0 0 24.384-24.704 25.152 25.152 0 0 0-23.488-24.768L633.408 361.216a24.064 24.064 0 0 0-14.72-31.68 25.344 25.344 0 0 0-9.728-1.728 26.112 26.112 0 0 0-25.344 17.792H439.04a14.72 14.72 0 0 0-2.752-6.08L526.464 192h154.368c14.72 0 31.808 9.6 39.168 21.248l170.496 277.76z m-477.312 156.16L338.112 525.312l1.344-2.56c0.448-0.896 0.448-1.792 0.96-2.24v-0.448c0.448-0.832 0.448-1.28 0.448-2.112v-0.448c0.448-0.896 0.448-1.728 0.448-2.56v-0.512a20.48 20.48 0 0 0-1.408-10.368c-0.448-1.28-1.344-2.624-2.304-4.352V499.2l75.52-122.816c3.264 0 6.528-0.384 9.28-1.728l72.32 117.632a24 24 0 0 0-9.664 19.072c0 5.632 2.304 11.264 5.952 15.616v0.448l-72.768 118.848c-0.896 1.28-2.752 0.896-5.12 0.896z m22.08 10.88c-1.344-1.728-2.752-3.456-4.608-5.184l-0.448-0.448 71.872-117.12a60.736 60.736 0 0 0 4.608 1.28c1.408 0.448 3.2 0.448 5.12 0.448h2.752c2.304-0.448 4.608-0.896 6.912-1.728 0.896-0.448 1.344-0.448 2.304-0.896l72.768 117.12a27.328 27.328 0 0 0-11.072 12.608H438.528c-0.96-2.176-1.856-4.352-3.2-6.08z m236.352-185.28l15.68 25.6a28.096 28.096 0 0 0-4.16 8.32l-146.048-0.512a24.96 24.96 0 0 0-9.216-13.44l-0.896-0.832c-5.504-3.904-12.416-5.248-19.328-3.904L433.92 368.192s0-0.448 0.448-0.448c0.448-0.448 0.896-1.28 1.408-1.728a21.44 21.44 0 0 0 3.2-7.424v-0.384h145.152a25.92 25.92 0 0 0 25.792 19.072h3.648l58.048 95.424z" fill="#FFFFFF" p-id="8453"></path></svg>