<?xml version="1.0" standalone="no"?>
<!DOCTYPE svg PUBLIC "-//W3C//DTD SVG 1.1//EN" "http://www.w3.org/Graphics/SVG/1.1/DTD/svg11.dtd">
<svg t="1730522576607" class="icon" viewBox="0 0 1024 1024" version="1.1" xmlns="http://www.w3.org/2000/svg" p-id="7056" width="32" height="32" xmlns:xlink="http://www.w3.org/1999/xlink">
    <!-- 添加一个白色矩形作为背景 -->
    <rect x="80" y="120" width="900" height="800" fill="#FFFFFF" ></rect>
    <path d="M697.6 352H320c-83.2 0-147.2 64-147.2 153.6v32c0 83.2 64 153.6 147.2 153.6h377.6c83.2 0 147.2-64 147.2-153.6v-32c0-76.8-64-153.6-147.2-153.6z m0 0" fill="#D71718" p-id="7057"></path>
    <path d="M902.4 102.4H121.6c-64 0-121.6 57.6-121.6 128v582.4c0 70.4 51.2 128 121.6 128h780.8c64 0 121.6-57.6 121.6-128V230.4c0-70.4-51.2-128-121.6-128z m38.4 428.8c0 134.4-108.8 249.6-243.2 249.6H320c-134.4 0-243.2-108.8-243.2-249.6v-25.6C76.8 371.2 185.6 256 320 256h377.6c134.4 0 243.2 108.8 243.2 249.6v25.6z m0 0" fill="#D71718" p-id="7058"></path>
</svg>