<?xml version="1.0" standalone="no"?><!DOCTYPE svg PUBLIC "-//W3C//DTD SVG 1.1//EN" "http://www.w3.org/Graphics/SVG/1.1/DTD/svg11.dtd"><svg t="1730525091055" class="icon" viewBox="0 0 1024 1024" version="1.1" xmlns="http://www.w3.org/2000/svg" p-id="8639" width="32" height="32" xmlns:xlink="http://www.w3.org/1999/xlink"><path d="M936.471697 312.837106c-78.587594-50.880898-175.085848-91.600237-286.789888-121.061446a1491.117346 1491.117346 0 0 0-163.462195-32.970237 3.582132 3.582132 0 0 1-2.924189-2.412456c-6.360112-20.469327-19.59207-58.118267-38.160674-86.994639a153.51995 153.51995 0 0 0-166.678803-64.18596C217.85212 21.29541 172.527182 43.446146 143.870125 71.225946c-19.299651 18.568604-25.952182 34.797855-28.218429 43.204901-3.947656 10.600187-4.459389 28.218429 14.474738 53.147144 22.443155 29.46121 69.449501 65.72116 139.77626 107.68328 36.552369 21.931421 54.901658 50.661584 56.071334 88.091209 1.242781 37.283417-15.717519 84.143554-47.51808 131.29611-31.800561 47.152556-69.083978 81.731097-93.281646 98.252769-57.021696 38.745511-115.797905 99.130025-155.201359 142.992868a113.897182 113.897182 0 0 0-13.012644 136.559651c29.241895 47.664289 74.566833 86.263591 130.857482 111.923354 57.972057 26.317706 127.933292 39.476559 209.079551 39.476559 27.560486 0 55.120973-1.462095 82.53525-4.166971 82.462145-8.041521 150.303342-64.843903 168.579526-141.238354 20.323117-85.16702 15.27889-208.640923-14.182319-348.709601a3.362818 3.362818 0 0 1 1.900723-3.655237c10.234663-4.824913 20.469327-9.72293 30.923304-14.840262 127.567768-61.992818 240.295275-49.711222 294.392781-43.862843 11.623653 1.242781 20.030698 2.193142 26.902544 2.193142 29.680524 0 63.893541-12.793329 73.177843-41.231072 14.694052-44.813205-41.231072-87.287057-84.582182-115.432382zM713.502245 274.310909c-12.135387 46.933242-35.967531 117.552419-68.279825 149.645399a3.801446 3.801446 0 0 1-5.117332 0.14621c-30.8502-26.756334-63.966646-51.173317-98.837606-73.104738a3.289713 3.289713 0 0 1-1.462095-3.582132 328.971322 328.971322 0 0 0 7.675998-115.505487 3.362818 3.362818 0 0 1 1.169676-2.924189 3.801446 3.801446 0 0 1 3.143503-0.731048c27.92601 5.482855 55.120973 11.696758 81.584888 18.714813 26.756334 7.018055 52.635412 14.840262 77.856546 23.393516a3.362818 3.362818 0 0 1 2.266247 3.947656zM294.758305 60.33334a91.088504 91.088504 0 0 1 98.691396 38.891721c8.772569 13.670586 16.375461 30.70399 22.223841 45.836671a3.289713 3.289713 0 0 1-0.584838 3.289713 3.655237 3.655237 0 0 1-3.216609 1.315886A2096.643893 2096.643893 0 0 0 184.954988 139.213353a3.655237 3.655237 0 0 1-2.92419-1.315885 64.33217 64.33217 0 0 1-6.433217-8.918778 3.289713 3.289713 0 0 1 0-3.143504c5.117332-9.72293 28.437743-41.523491 119.233828-65.501846z m-28.145325 136.99828c81.877307 2.485561 159.587644 9.649825 232.473068 21.419688 1.608304 0.292419 2.77798 1.462095 2.997294 2.92419 5.482855 33.262656 5.117332 67.256359-1.169676 100.372805a3.435923 3.435923 0 0 1-2.046932 2.485561 3.801446 3.801446 0 0 1-3.289713-0.073104 698.442669 698.442669 0 0 0-52.416098-25.367344 585.495849 585.495849 0 0 0-91.527132-31.581247 3.582132 3.582132 0 0 1-1.900723-1.169676 191.388205 191.388205 0 0 0-47.591185-39.403454 1175.304877 1175.304877 0 0 1-37.64894-23.393516 3.289713 3.289713 0 0 1-1.38899-3.874551 3.655237 3.655237 0 0 1 3.509027-2.339352z m62.870075 328.094065c27.048753-40.207606 58.922419-101.176958 56.875487-163.827718a158.417968 158.417968 0 0 0-5.336646-36.479265 3.289713 3.289713 0 0 1 1.096571-3.362818 3.801446 3.801446 0 0 1 3.655237-0.731047c12.208491 4.386284 25.952182 9.649825 40.865548 16.156147 20.176908 8.845673 39.842082 18.641708 58.922419 29.388105 1.462095 0.804152 2.193142 2.558666 1.608305 4.093865a315.812469 315.812469 0 0 1-49.345699 85.532544C405.950611 496.110685 363.03813 531.932007 309.96409 563.220835a3.801446 3.801446 0 0 1-4.605598-0.657943 3.289713 3.289713 0 0 1-0.292419-4.313179c8.626359-10.600187 16.66788-21.565898 24.270773-32.750923z m-48.029813 70.838492l-7.749102 3.143503 5.848379-7.310474 1.900723 4.166971z m-120.03798 90.649875c26.53702-6.360112 119.306933-30.557781 253.307918-82.973878a3.801446 3.801446 0 0 1 3.655237 0.657943c1.023466 0.731047 1.462095 2.046933 1.169676 3.289713a666.276584 666.276584 0 0 1-68.864664 167.117432 3.655237 3.655237 0 0 1-2.412456 1.681409 1031.215438 1031.215438 0 0 1-279.333205 16.302356 3.655237 3.655237 0 0 1-2.77798-1.681409 3.289713 3.289713 0 0 1-0.219314-3.070399 61.700399 61.700399 0 0 1 10.161559-15.351995 1183.565712 1183.565712 0 0 1 83.704925-85.02081 3.655237 3.655237 0 0 1 1.608304-0.877257zM69.230187 843.723715a51.977469 51.977469 0 0 1-2.412456-4.386284 3.289713 3.289713 0 0 1 0.292419-3.362818 3.655237 3.655237 0 0 1 3.216608-1.462095 1110.607183 1110.607183 0 0 0 240.441484-9.211197 3.655237 3.655237 0 0 1 3.655237 1.608305c0.731047 1.096571 0.731047 2.558666-0.146209 3.655237a559.251248 559.251248 0 0 1-109.730212 112.361982 3.801446 3.801446 0 0 1-3.582133 0.511733 327.655437 327.655437 0 0 1-26.902543-10.673291c-46.055985-20.907955-81.365574-50.807793-104.832195-89.041572z m479.640188 22.077631c-12.50091 52.416097-59.141733 91.380923-115.724801 96.936883-64.478379 6.287007-122.084913 4.971122-172.380973-3.947656a3.582132 3.582132 0 0 1-2.851084-2.412456 3.289713 3.289713 0 0 1 1.023466-3.435923 606.550013 606.550013 0 0 0 118.575885-139.191421 3.655237 3.655237 0 0 1 2.193142-1.462095l25.440449-6.213903c51.68505-13.231958 101.761796-31.654352 149.426085-54.828553a3.801446 3.801446 0 0 1 3.509028 0.073104 3.362818 3.362818 0 0 1 1.754513 2.92419 472.841447 472.841447 0 0 1-10.96571 111.55783z m6.94495-162.146309a713.136722 713.136722 0 0 1-141.530773 57.021696 3.728342 3.728342 0 0 1-3.801447-1.023466 3.289713 3.289713 0 0 1-0.511733-3.655237c5.848379-11.696758 11.404339-23.539726 16.594776-35.602008a665.984165 665.984165 0 0 0 43.131795-136.85207 3.435923 3.435923 0 0 1 2.120038-2.485561c19.59207-8.187731 39.915187-16.81409 60.823142-26.171496a3.801446 3.801446 0 0 1 3.143504 0.073104 3.435923 3.435923 0 0 1 1.973828 2.412457c10.088454 50.807793 16.740985 98.910711 19.884488 143.139077a3.362818 3.362818 0 0 1-1.827618 3.143504zM430.586908 535.441034a3.728342 3.728342 0 0 1-4.386284-1.315885 3.289713 3.289713 0 0 1 0.438628-4.240075c17.033404-15.498205 32.750923-32.166085 47.006347-50.076745 20.83485-26.025287 37.868254-54.682344 50.588479-85.020811a3.582132 3.582132 0 0 1 2.266247-2.046933 3.801446 3.801446 0 0 1 3.143504 0.438629c27.121858 17.764451 53.000935 37.137207 77.491022 58.045162a3.289713 3.289713 0 0 1-0.731047 5.629065A2862.63534 2862.63534 0 0 1 430.513804 535.441034z m517.362233-123.181484c-3.435923 0-11.477444-0.877257-19.957594-1.754513-40.792444-4.459389-121.865599-13.305062-219.314214 10.307768a3.728342 3.728342 0 0 1-3.655237-1.242781 3.289713 3.289713 0 0 1-0.365524-3.655237c13.378167-22.077631 25.586658-49.711222 36.771683-82.754563a709.847008 709.847008 0 0 0 12.939539-42.985586 3.509027 3.509027 0 0 1 1.827618-2.193143 3.801446 3.801446 0 0 1 2.92419-0.146209c53.366459 21.054165 101.761796 45.324938 143.139077 72.227481 35.090274 22.662469 49.857431 37.79515 56.144439 46.055985 0.731047 0.950362 0.877257 2.193142 0.438629 3.216609a3.582132 3.582132 0 0 1-2.631771 2.120037 44.59389 44.59389 0 0 1-8.260835 0.804152z" fill="#E24848" p-id="8640"></path></svg>