<?xml version="1.0" standalone="no"?><!DOCTYPE svg PUBLIC "-//W3C//DTD SVG 1.1//EN" "http://www.w3.org/Graphics/SVG/1.1/DTD/svg11.dtd"><svg t="1730536979256" class="icon" viewBox="0 0 1024 1024" version="1.1" xmlns="http://www.w3.org/2000/svg" p-id="28879" width="32" height="32" xmlns:xlink="http://www.w3.org/1999/xlink">
    <rect x="80" y="120" width="900" height="900" fill="#FFFFFF" ></rect><path d="M866.432 0A158.016 158.016 0 0 1 1024 157.568v708.864A158.016 158.016 0 0 1 866.432 1024H157.568A158.016 158.016 0 0 1 0 866.432V157.568A158.016 158.016 0 0 1 157.568 0zM315.072 787.648H78.72v78.784c0 17.92 6.08 34.944 17.28 48.896l5.952 6.72c14.976 14.912 34.688 23.168 55.616 23.168h157.504v-157.568z m315.072 0H393.792v157.568h236.352v-157.568z m315.072 0h-236.352v157.568h157.568c17.92 0 34.944-6.016 48.896-17.216l6.72-5.952c14.912-14.976 23.168-34.752 23.168-55.616v-78.784zM315.072 551.36H78.72v157.504h236.352V551.36z m315.072 0H393.792v157.504h236.352V551.36z m315.072 0h-236.352v157.504h236.352V551.36zM315.072 315.072H78.72v157.504h236.352V315.072z m315.072 0H393.792v157.504h236.352V315.072z m315.072 0h-236.352v157.504h236.352V315.072z" fill="#036EF4" p-id="28880"></path></svg>